<svg width="290" height="290" viewBox="0 0 290 290" fill="none" xmlns="http://www.w3.org/2000/svg">
<rect width="290" height="290" rx="145" fill="white"/>
<path fill-rule="evenodd" clip-rule="evenodd" d="M203.635 44H143H135.5H128H120.5V59C120.5 44 120.492 44 120.484 44L120.467 44L120.425 44.0002L120.319 44.0008C120.237 44.0014 120.135 44.0026 120.013 44.0046C119.768 44.0085 119.441 44.0158 119.04 44.0292C118.236 44.056 117.128 44.1073 115.756 44.2053C113.019 44.401 109.207 44.7851 104.672 45.5416C95.6734 47.0428 83.4458 50.0731 71.0367 56.2833C58.5687 62.523 45.6464 72.1174 35.8749 86.788C26.0414 101.552 19.9999 120.562 20 144.578C20.0001 168.594 26.0417 187.598 35.8799 202.351C45.6561 217.011 58.5845 226.586 71.0565 232.805C75.851 235.196 80.6183 237.112 85.1828 238.649L101.307 212.152C96.0148 210.799 90.1918 208.824 84.4439 205.958C75.5409 201.518 67.0943 195.086 60.8392 185.706C54.6461 176.42 50.0001 163.351 50 144.578C49.9999 125.805 54.6458 112.723 60.8434 103.418C67.1032 94.0202 75.5559 87.5688 84.4629 83.1112C93.4289 78.6241 102.576 76.3058 109.609 75.1327C113.089 74.5521 115.957 74.2676 117.896 74.129C118.863 74.0598 119.591 74.0275 120.04 74.0126C120.264 74.0051 120.418 74.0019 120.497 74.0007L120.543 74H128H135.5H143H185.379L203.635 44ZM116.436 245H120.239L120.346 245.001L120.452 245.001L120.494 245.001H120.511L120.512 245.001C120.512 245.001 120.512 245.001 120.513 245H120.527V245.001L121.244 245H143H228.837H239C247.284 245 254 238.284 254 230C254 221.716 247.284 215 239 215H228.837H169.679L207.816 152.294L250.574 81.9907C259.104 67.9647 251.953 50.6283 237.842 45.4969L116.436 245Z" fill="black"/>
</svg>
