<svg width="114" height="114" viewBox="0 0 114 114" fill="none" xmlns="http://www.w3.org/2000/svg">
<circle cx="57" cy="57" r="57" fill="white"/>
<path d="M56 20C61.5 20 80 20 80 20L78 34H68.5C68.5 34 65 34 65 38C65 42 65.5 47.5 65.5 47.5V100.5H42.5V59.5H34V43H42C42 43 41.8566 37.4553 42.5 34C43.1108 30.7197 43.7833 28.3611 45.5 25.5C47 23 50.5 20 56 20Z" fill="#008A4C"/>
<path d="M75.5021 47.9592C75.5021 49.0638 62.5021 51.9572 59.5021 52.959C56.0021 53.459 43.0021 57.0637 43.0021 55.9591C43.0021 54.8545 42.5 47.959 57.0021 44.9595C74.0021 41.9588 75.5021 46.8546 75.5021 47.9592Z" fill="#EA8A19"/>
<path d="M43.9999 58.2088C43.9999 57.1042 56.9999 54.2107 59.9999 53.209C63.4999 52.709 76.4999 49.1043 76.4999 50.2089C76.4999 51.3135 77.002 58.209 62.4999 61.2084C45.4999 64.2091 43.9999 59.3133 43.9999 58.2088Z" fill="#F2B01C"/>
</svg>
