<svg width="100" height="100" viewBox="0 0 100 100" fill="none" xmlns="http://www.w3.org/2000/svg">
<circle cx="50" cy="50" r="50" fill="white"/>
<g clip-path="url(#clip0_41_54)">
<path d="M54.2613 17.9954C57.5063 25.5041 42.618 30.1411 41.2398 36.4006C39.9676 42.1439 50.0759 48.8229 50.0805 48.8229C48.5456 46.4445 47.4348 44.4809 45.8952 40.7795C43.2909 34.52 61.7469 28.8597 54.2613 17.9954ZM64.1299 28.3988C64.1299 28.3988 51.0946 29.2238 50.4309 37.5668C50.1359 41.282 53.8556 43.264 53.9663 45.9697C54.0492 48.173 51.7399 50.0121 51.7399 50.0121C51.7399 50.0121 55.9298 49.2239 57.2435 45.8544C58.6955 42.1162 54.4272 39.5627 54.8559 36.5712C55.2707 33.7087 64.1299 28.3988 64.1299 28.3988ZM67.292 47.6705C65.9276 47.6106 64.4111 48.0623 63.0375 49.0488C65.7294 48.4726 68.0064 50.1181 68.0064 52.0172C68.0064 56.2947 61.8252 60.3371 61.8252 60.3371C61.8252 60.3371 71.3943 59.2447 71.3943 52.22C71.3943 49.3161 69.5598 47.7766 67.292 47.6705ZM43.6366 47.6798C43.6366 47.6798 31.6938 47.5184 31.6938 50.8971C31.6938 54.4279 47.3334 54.6768 58.5019 52.5012C58.5019 52.5012 61.4841 50.4592 62.277 49.6987C54.9573 51.1921 38.2529 51.3903 38.2529 50.0997C38.2529 48.9059 43.6366 47.6798 43.6366 47.6798ZM40.7512 54.2527C38.9213 54.2527 36.1879 55.6678 36.1879 57.0322C36.1879 59.7748 49.9838 61.8905 60.1981 57.8803L56.6627 55.7139C49.7395 57.931 36.9761 57.2212 40.7512 54.2527ZM42.452 60.3878C39.9399 60.3878 38.3128 61.9366 38.3128 63.0797C38.3128 66.6013 53.3071 66.9562 59.2486 63.3747L55.4735 60.9732C51.0347 62.8492 39.8892 63.1027 42.452 60.3878ZM34.086 63.5775C29.9929 63.4945 27.3333 65.3337 27.3333 66.8594C27.3287 74.9719 69.2509 74.5801 69.2509 66.2878C69.2509 64.9142 67.6284 64.2597 67.043 63.9463C70.4678 71.8744 32.7631 71.2613 32.7631 66.5828C32.7631 65.5181 35.5288 64.4717 38.1008 64.9742L35.9205 63.7342C35.2798 63.6374 34.6668 63.5867 34.086 63.5775ZM73.6713 69.035C67.2966 75.0733 51.1453 77.2766 34.9019 73.5476C51.1407 80.1897 73.5884 76.4515 73.6713 69.035Z" fill="black"/>
</g>
<defs>
<clipPath id="clip0_41_54">
<rect width="59" height="59" fill="white" transform="translate(21 18)"/>
</clipPath>
</defs>
</svg>
