<svg width="317" height="283" viewBox="0 0 317 283" fill="none" xmlns="http://www.w3.org/2000/svg">
<path d="M27.2735 57.354C7.40973 30.8679 27.2737 -23.7875 55.7325 11.5262C61.6087 18.8178 73.6237 30.8677 113.352 28.6606C139.569 27.2041 62.5876 86.0466 62.5876 86.0466C62.5876 86.0466 47.1373 83.84 27.2735 57.354Z" fill="#FA579C"/>
<path d="M289.455 57.3539C309.318 30.8679 289.454 -23.7876 260.996 11.5261C255.119 18.8177 243.104 30.8677 203.376 28.6605C177.159 27.2041 254.141 86.0466 254.141 86.0466C254.141 86.0466 269.591 83.84 289.455 57.3539Z" fill="#FA579C"/>
<path d="M253.804 62.6372L225.213 121.14L242.589 141.25C242.589 141.25 270.135 180.789 294.073 139.156C318.011 97.5234 253.804 62.6372 253.804 62.6372Z" fill="#FA579C"/>
<path d="M63.1971 62.6372L91.7881 121.14L74.4123 141.25C74.4123 141.25 46.8657 180.789 22.9277 139.156C-1.01026 97.5234 63.1971 62.6372 63.1971 62.6372Z" fill="#FA579C"/>
<path fill-rule="evenodd" clip-rule="evenodd" d="M52.9994 54.8942C94.9352 -0.696407 159.472 26.0085 159.472 26.0085V283.003L59.2949 279.685C53.0097 279.477 48.7943 273.665 51.1331 267.827C55.1681 257.756 63.0176 240.768 77.807 215.783C94.074 188.302 78.7549 162.657 63.5311 137.171C47.4367 110.227 31.4488 83.4621 52.9994 54.8942ZM130.779 96.934C130.779 104.345 123.862 110.353 115.329 110.353C106.796 110.353 99.879 104.345 99.879 96.934C99.879 89.5231 106.796 83.5154 115.329 83.5154C123.862 83.5154 130.779 89.5231 130.779 96.934ZM124.159 256.04C132.692 256.04 139.609 250.033 139.609 242.622C139.609 235.211 132.692 229.203 124.159 229.203C115.626 229.203 108.709 235.211 108.709 242.622C108.709 250.033 115.626 256.04 124.159 256.04Z" fill="#FA579C"/>
<path fill-rule="evenodd" clip-rule="evenodd" d="M263.733 54.8942C221.797 -0.696407 157.261 26.0085 157.261 26.0085V283.003L252.137 279.541C256.378 279.387 259.905 276.486 259.778 272.243C259.506 263.132 256.149 244.88 238.926 215.783C222.659 188.302 237.978 162.657 253.201 137.171C269.296 110.227 285.284 83.4621 263.733 54.8942ZM185.954 96.934C185.954 104.345 192.871 110.353 201.404 110.353C209.937 110.353 216.854 104.345 216.854 96.934C216.854 89.5231 209.937 83.5154 201.404 83.5154C192.871 83.5154 185.954 89.5231 185.954 96.934ZM192.574 256.04C184.041 256.04 177.124 250.033 177.124 242.622C177.124 235.211 184.041 229.203 192.574 229.203C201.106 229.203 208.023 235.211 208.023 242.622C208.023 250.033 201.106 256.04 192.574 256.04Z" fill="#FA579C"/>
<circle cx="119.578" cy="93.0947" r="20.2876" fill="#FA579C" stroke="white" stroke-width="0.8"/>
<circle cx="202.326" cy="93.0947" r="20.2876" fill="#FA579C" stroke="white" stroke-width="0.8"/>
<rect x="98.8901" y="227.563" width="51.7191" height="31.0315" fill="#FA579C"/>
<rect x="171.296" y="227.563" width="51.7191" height="31.0315" fill="#FA579C"/>
<circle cx="135.094" cy="243.079" r="15.5157" fill="white"/>
<circle cx="186.812" cy="243.079" r="15.5157" fill="white"/>
</svg>
