<svg width="900" height="900" viewBox="0 0 900 900" fill="none" xmlns="http://www.w3.org/2000/svg">
<path d="M432.68 850L94.9296 265C87.2316 251.667 96.8541 235 112.25 235L787.75 235C803.146 235 812.768 251.667 805.07 265L467.32 850C459.622 863.333 440.378 863.333 432.68 850Z" fill="#F5E129" stroke="black" stroke-width="20"/>
<path d="M364 512H272.8L298.2 368H334.2L314.4 480.8H369.6L364 512ZM451.227 512L452.427 480.6H419.027L409.227 512H371.027L422.427 368H488.427L489.227 512H451.227ZM443.027 403L427.227 453.8H453.427L455.627 403H443.027ZM575.752 468.2H551.952L544.152 512H508.152L533.552 368H594.552C609.618 368 620.352 371.467 626.752 378.4C631.418 383.733 633.752 390.533 633.752 398.8C633.752 401.6 633.485 404.533 632.952 407.6L628.952 430.2C626.952 441.267 621.085 450.4 611.352 457.6C601.618 464.667 589.752 468.2 575.752 468.2ZM581.952 399.2H563.952L557.352 437H575.152C586.085 437 592.418 432.133 594.152 422.4L595.552 414.2C595.818 413 595.952 411.4 595.952 409.4C595.952 407.4 594.952 405.2 592.952 402.8C590.952 400.4 587.285 399.2 581.952 399.2Z" fill="black"/>
</svg>
