<svg width="100" height="100" viewBox="0 0 100 100" fill="none" xmlns="http://www.w3.org/2000/svg">
<circle cx="50" cy="50" r="50" fill="white"/>
<path d="M50.9844 64.8438C52.7031 64.8438 54.2917 64.4922 55.75 63.7891C57.2083 63.0859 58.4062 62.1224 59.3438 60.8984C60.2812 59.6484 60.8151 58.2292 60.9453 56.6406H67.8203C67.6901 59.1406 66.8438 61.4714 65.2812 63.6328C63.7448 65.7682 61.7266 67.5 59.2266 68.8281C56.7266 70.1302 53.9792 70.7812 50.9844 70.7812C47.8073 70.7812 45.0339 70.2214 42.6641 69.1016C40.3203 67.9818 38.3672 66.4453 36.8047 64.4922C35.2682 62.5391 34.1094 60.2995 33.3281 57.7734C32.5729 55.2214 32.1953 52.526 32.1953 49.6875V48.0469C32.1953 45.2083 32.5729 42.526 33.3281 40C34.1094 37.4479 35.2682 35.1953 36.8047 33.2422C38.3672 31.2891 40.3203 29.7526 42.6641 28.6328C45.0339 27.513 47.8073 26.9531 50.9844 26.9531C54.2917 26.9531 57.1823 27.6302 59.6562 28.9844C62.1302 30.3125 64.0703 32.1354 65.4766 34.4531C66.9089 36.7448 67.6901 39.349 67.8203 42.2656H60.9453C60.8151 40.5208 60.3203 38.9453 59.4609 37.5391C58.6276 36.1328 57.4818 35.013 56.0234 34.1797C54.5911 33.3203 52.9115 32.8906 50.9844 32.8906C48.7708 32.8906 46.9089 33.3333 45.3984 34.2188C43.9141 35.0781 42.7292 36.25 41.8438 37.7344C40.9844 39.1927 40.3594 40.8203 39.9688 42.6172C39.6042 44.388 39.4219 46.1979 39.4219 48.0469V49.6875C39.4219 51.5365 39.6042 53.3594 39.9688 55.1562C40.3333 56.9531 40.9453 58.5807 41.8047 60.0391C42.6901 61.4974 43.875 62.6693 45.3594 63.5547C46.8698 64.4141 48.7448 64.8438 50.9844 64.8438Z" fill="#0B0B0B"/>
</svg>
