<svg width="100" height="100" viewBox="0 0 100 100" fill="none" xmlns="http://www.w3.org/2000/svg">
<circle cx="50" cy="50" r="50" fill="white"/>
<path d="M30.5469 60.4219C31.4062 60.4219 32.2005 60.2461 32.9297 59.8945C33.6589 59.543 34.2578 59.0612 34.7266 58.4492C35.1953 57.8242 35.4622 57.1146 35.5273 56.3203H38.9648C38.8997 57.5703 38.4766 58.7357 37.6953 59.8164C36.9271 60.8841 35.918 61.75 34.668 62.4141C33.418 63.0651 32.0443 63.3906 30.5469 63.3906C28.9583 63.3906 27.5716 63.1107 26.3867 62.5508C25.2148 61.9909 24.2383 61.2227 23.457 60.2461C22.6888 59.2695 22.1094 58.1497 21.7188 56.8867C21.3411 55.6107 21.1523 54.263 21.1523 52.8438V52.0234C21.1523 50.6042 21.3411 49.263 21.7188 48C22.1094 46.724 22.6888 45.5977 23.457 44.6211C24.2383 43.6445 25.2148 42.8763 26.3867 42.3164C27.5716 41.7565 28.9583 41.4766 30.5469 41.4766C32.2005 41.4766 33.6458 41.8151 34.8828 42.4922C36.1198 43.1562 37.0898 44.0677 37.793 45.2266C38.5091 46.3724 38.8997 47.6745 38.9648 49.1328H35.5273C35.4622 48.2604 35.2148 47.4727 34.7852 46.7695C34.3685 46.0664 33.7956 45.5065 33.0664 45.0898C32.3503 44.6602 31.5104 44.4453 30.5469 44.4453C29.4401 44.4453 28.5091 44.6667 27.7539 45.1094C27.0117 45.5391 26.4193 46.125 25.9766 46.8672C25.5469 47.5964 25.2344 48.4102 25.0391 49.3086C24.8568 50.194 24.7656 51.099 24.7656 52.0234V52.8438C24.7656 53.7682 24.8568 54.6797 25.0391 55.5781C25.2214 56.4766 25.5273 57.2904 25.957 58.0195C26.3997 58.7487 26.9922 59.3346 27.7344 59.7773C28.4896 60.207 29.4271 60.4219 30.5469 60.4219ZM61.2891 47.7461V51.1445H41.7969V47.7461H61.2891ZM53.3594 39.4453V60.1484H49.7461V39.4453H53.3594ZM83.9844 47.7461V51.1445H64.4922V47.7461H83.9844ZM76.0547 39.4453V60.1484H72.4414V39.4453H76.0547Z" fill="black"/>
</svg>
