<svg width="100" height="100" viewBox="0 0 100 100" fill="none" xmlns="http://www.w3.org/2000/svg">
<circle cx="50" cy="50" r="50" fill="white"/>
<path d="M42.5859 56.6963H47.2734C47.0293 58.9424 46.3864 60.9525 45.3447 62.7266C44.3031 64.5007 42.8301 65.9085 40.9258 66.9502C39.0215 67.9756 36.6452 68.4883 33.7969 68.4883C31.7135 68.4883 29.8174 68.0977 28.1084 67.3164C26.4157 66.5352 24.959 65.4284 23.7383 63.9961C22.5176 62.5475 21.5736 60.8141 20.9062 58.7959C20.2552 56.7614 19.9297 54.499 19.9297 52.0088V48.4688C19.9297 45.9785 20.2552 43.7243 20.9062 41.7061C21.5736 39.6715 22.5257 37.93 23.7627 36.4814C25.016 35.0329 26.5215 33.918 28.2793 33.1367C30.0371 32.3555 32.0146 31.9648 34.2119 31.9648C36.8975 31.9648 39.168 32.4694 41.0234 33.4785C42.8789 34.4876 44.3193 35.8874 45.3447 37.6777C46.3864 39.4518 47.0293 41.5107 47.2734 43.8545H42.5859C42.3581 42.1943 41.9349 40.7702 41.3164 39.582C40.6979 38.3776 39.819 37.4499 38.6797 36.7988C37.5404 36.1478 36.0511 35.8223 34.2119 35.8223C32.6331 35.8223 31.2415 36.1234 30.0371 36.7256C28.849 37.3278 27.848 38.1823 27.0342 39.2891C26.2367 40.3958 25.6344 41.7223 25.2275 43.2686C24.8206 44.8148 24.6172 46.5319 24.6172 48.4199V52.0088C24.6172 53.7503 24.7962 55.3861 25.1543 56.916C25.5286 58.446 26.0902 59.7887 26.8389 60.9443C27.5876 62.0999 28.5397 63.0114 29.6953 63.6787C30.8509 64.3298 32.2181 64.6553 33.7969 64.6553C35.7988 64.6553 37.3939 64.3379 38.582 63.7031C39.7702 63.0684 40.6654 62.1569 41.2676 60.9688C41.8861 59.7806 42.3255 58.3564 42.5859 56.6963ZM56.3799 68L63.2891 32.4531H66.8047L59.8711 68H56.3799ZM66.3164 68L73.25 32.4531H76.7412L69.8076 68H66.3164ZM79.7197 46.0029H54.3291V42.6094H79.7197V46.0029ZM77.8887 57.9902H52.4736V54.6211H77.8887V57.9902Z" fill="black"/>
</svg>
