<svg xmlns="http://www.w3.org/2000/svg" xmlns:xlink="http://www.w3.org/1999/xlink" viewBox="0,0,256,256" width="100px" height="100px"><g fill="#ffffff" fill-rule="nonzero" stroke="none" stroke-width="1" stroke-linecap="butt" stroke-linejoin="miter" stroke-miterlimit="10" stroke-dasharray="" stroke-dashoffset="0" font-family="none" font-weight="none" font-size="none" text-anchor="none" style="mix-blend-mode: normal"><g transform="scale(5.12,5.12)"><path d="M44,4h-38c-1.1,0 -2,0.9 -2,2v38c0,1.1 0.9,2 2,2h38c1.1,0 2,-0.9 2,-2v-38c0,-1.1 -0.9,-2 -2,-2zM25,36h-9v-22h2.5v19.5h6.5zM34,22.12c-0.16,-0.03 -0.32,-0.03 -0.51,-0.03c-1.56,0 -2.61,1.46 -2.87,3.25c-0.06,0.42 -0.1,0.87 -0.1,1.41l-0.02,9.25h-2.5c0,0 0.03,-14.85 0,-16h2.5v2.25l0.12,-0.37c0.51,-1.48 1.43,-2.13 2.87,-2.13c0.19,0 0.35,0 0.51,0.03z"></path></g></g></svg>