<svg width="16" height="16" viewBox="0 0 16 16" fill="none" xmlns="http://www.w3.org/2000/svg">
<path d="M4.66537 0C2.0927 0 0 2.09463 0 4.66797V11.3346C0 13.9073 2.09463 16 4.66797 16H11.3346C13.9073 16 16 13.9054 16 11.332V4.66537C16 2.0927 13.9054 0 11.332 0H4.66537ZM12.6667 2.66667C13.0347 2.66667 13.3333 2.96533 13.3333 3.33333C13.3333 3.70133 13.0347 4 12.6667 4C12.2987 4 12 3.70133 12 3.33333C12 2.96533 12.2987 2.66667 12.6667 2.66667ZM8 4C10.206 4 12 5.794 12 8C12 10.206 10.206 12 8 12C5.794 12 4 10.206 4 8C4 5.794 5.794 4 8 4ZM8 5.33333C6.52724 5.33333 5.33333 6.52724 5.33333 8C5.33333 9.47276 6.52724 10.6667 8 10.6667C9.47276 10.6667 10.6667 9.47276 10.6667 8C10.6667 6.52724 9.47276 5.33333 8 5.33333Z" fill="white"/>
</svg>
