<svg width="13" height="13" viewBox="0 0 13 13" fill="none" xmlns="http://www.w3.org/2000/svg">
<path d="M12.8 6.4C12.8 9.9344 9.9344 12.8 6.4 12.8C2.8656 12.8 0 9.9344 0 6.4C0 2.8656 2.8656 0 6.4 0C9.9344 0 12.8 2.8656 12.8 6.4ZM3.94827 4.27787C4.44693 4.27787 4.74613 3.97867 4.74613 3.57973C4.74613 3.1808 4.44693 2.8816 3.99787 2.8816C3.4992 2.8816 3.2 3.1808 3.2 3.57973C3.2 3.97867 3.4992 4.2784 3.94827 4.27787ZM3.2 9.06666H4.8V4.8H3.2V9.06666ZM8.77813 4.8C8.02506 4.8 7.62346 5.048 7.42293 5.3952V4.8H5.86666V9.06666H7.4224C7.4224 9.06666 7.4224 6.83413 7.4224 6.73493C7.4224 6.04053 7.9248 5.94133 8.0752 5.94133C8.2256 5.94133 8.6272 6.09013 8.6272 6.73493V9.06666H10.1333V6.73493C10.1333 5.3952 9.5312 4.8 8.77813 4.8Z" fill="white"/>
</svg>
