<svg width="12" height="14" viewBox="0 0 12 14" fill="none" xmlns="http://www.w3.org/2000/svg">
<path d="M3.50011 11.0962C4.00011 11.0962 5.10399 11.2746 6.5 11.3462C7.67409 11.4063 8.49997 11.5962 9.5 11.0962C10.1847 10.7538 9.93177 12.0524 9.70419 12.9052C9.59322 13.3211 9.20967 13.5962 8.77925 13.5962H4.31984C3.84314 13.5962 3.43125 13.2599 3.36577 12.7877C3.26448 12.0573 3.19009 11.0962 3.50011 11.0962Z" fill="white"/>
<path d="M0.472335 4.8414C1.66335 3.05516 1.96786 4.28233 2.23036 5.67325C2.39361 6.53821 2.56391 6.42544 2.43213 5.55513C1.15374 -2.8877 10.9841 0.255629 11.4723 2.34143C12 4.59618 11.5277 6.35092 11.5 6.59618C11.4723 6.84143 10.9721 10.3412 9.47215 10.8412C8.16897 11.2755 4.60153 10.9554 3.68777 10.8639C3.54467 10.8495 3.41069 10.8048 3.29045 10.7258C2.41001 10.148 -1.2968 7.49468 0.472335 4.8414Z" fill="white"/>
</svg>
