<svg width="16" height="16" viewBox="0 0 16 16" fill="none" xmlns="http://www.w3.org/2000/svg">
<path d="M14.5455 0H1.45455C0.650909 0 0 0.650909 0 1.45455V14.5455C0 15.3491 0.650909 16 1.45455 16H14.5455C15.3491 16 16 15.3491 16 14.5455V1.45455C16 0.650909 15.3484 0 14.5455 0ZM13.592 6.89018C13.4975 6.89891 13.4022 6.90473 13.3062 6.90473C12.2189 6.90473 11.2633 6.34618 10.7069 5.50036C10.7069 7.71782 10.7069 10.2415 10.7069 10.2836C10.7069 12.2364 9.12364 13.8189 7.17164 13.8189C5.21964 13.8182 3.63636 12.2349 3.63636 10.2829C3.63636 8.33018 5.21964 6.74764 7.17164 6.74764C7.24582 6.74764 7.31782 6.75418 7.38982 6.75855V8.50109C7.31709 8.49236 7.24655 8.47927 7.17164 8.47927C6.17527 8.47927 5.36727 9.28727 5.36727 10.2836C5.36727 11.28 6.17455 12.088 7.17164 12.088C8.16873 12.088 9.04873 11.3025 9.04873 10.3062C9.04873 10.2662 9.06618 2.18255 9.06618 2.18255H10.7309C10.8873 3.67127 12.0895 4.84655 13.592 4.95418V6.89018Z" fill="white"/>
</svg>
