<svg width="16" height="16" viewBox="0 0 16 16" fill="none" xmlns="http://www.w3.org/2000/svg">
<path d="M8 0C3.582 0 0 3.582 0 8C0 12.418 3.582 16 8 16C12.418 16 16 12.418 16 8C16 3.582 12.418 0 8 0ZM10.7873 5.33333H9.63467C8.91733 5.33333 8.66667 5.712 8.66667 6.47867V7.33333H10.7693L10.484 9.33333H8.66667V14.6333C8.44733 14.6547 8.22533 14.6667 8 14.6667C7.54333 14.6667 7.09733 14.62 6.66667 14.5327V9.33333H4.66667V7.33333H6.66667V6.25933C6.66667 4.226 7.65733 3.33333 9.34733 3.33333C10.1567 3.33333 10.5847 3.39333 10.7873 3.42067V5.33333Z" fill="white"/>
</svg>
