<svg width="15" height="14" viewBox="0 0 15 14" fill="none" xmlns="http://www.w3.org/2000/svg">
<rect x="4.77368" y="7.36841" width="2.06316" height="0.736842" rx="0.368421" fill="white"/>
<rect width="2.06316" height="0.736842" rx="0.368421" transform="matrix(-1 0 0 1 10.0789 7.36841)" fill="white"/>
<rect x="4.77368" y="9.87366" width="2.06316" height="0.736842" rx="0.368421" fill="white"/>
<rect width="2.06316" height="0.736842" rx="0.368421" transform="matrix(-1 0 0 1 10.0789 9.87366)" fill="white"/>
<rect x="4.77368" y="12.379" width="2.06316" height="0.736842" rx="0.368421" fill="white"/>
<rect width="2.06316" height="0.736842" rx="0.368421" transform="matrix(-1 0 0 1 10.0789 12.379)" fill="white"/>
<rect width="3.09474" height="1.03158" rx="0.515789" transform="matrix(1 0 0 -1 11.4053 1.03156)" fill="white"/>
<rect width="3.09474" height="1.03158" rx="0.515789" transform="matrix(1 0 0 -1 0.5 1.03156)" fill="white"/>
<rect x="2.71054" y="3.979" width="2.8" height="0.88421" rx="0.442105" fill="white"/>
<rect x="4.62634" y="4.86316" width="2.8" height="0.88421" rx="0.442105" transform="rotate(-90 4.62634 4.86316)" fill="white"/>
<rect x="6.10001" y="8.10529" width="2.06316" height="0.736842" rx="0.368421" transform="rotate(-90 6.10001 8.10529)" fill="white"/>
<rect width="2.06316" height="0.736842" rx="0.368421" transform="matrix(0 -1 -1 0 8.75262 8.10529)" fill="white"/>
<rect x="6.10001" y="10.6106" width="2.06316" height="0.736842" rx="0.368421" transform="rotate(-90 6.10001 10.6106)" fill="white"/>
<rect width="2.06316" height="0.736842" rx="0.368421" transform="matrix(0 -1 -1 0 8.75262 10.6106)" fill="white"/>
<rect x="6.10001" y="13.1158" width="2.06316" height="0.736842" rx="0.368421" transform="rotate(-90 6.10001 13.1158)" fill="white"/>
<rect width="2.06316" height="0.736842" rx="0.368421" transform="matrix(0 -1 -1 0 8.75262 13.1158)" fill="white"/>
<rect width="2.8" height="0.88421" rx="0.442105" transform="matrix(-1 0 0 1 12.2895 3.979)" fill="white"/>
<rect width="2.8" height="0.88421" rx="0.442105" transform="matrix(0 -1 -1 0 10.3737 4.86316)" fill="white"/>
<rect x="1.53159" width="6.0421" height="1.03158" rx="0.515789" transform="rotate(90 1.53159 0)" fill="white"/>
<rect x="14.5" width="6.0421" height="1.03158" rx="0.515789" transform="rotate(90 14.5 0)" fill="white"/>
<rect x="4.62631" y="7.36841" width="5.74737" height="0.736842" rx="0.368421" transform="rotate(90 4.62631 7.36841)" fill="white"/>
<rect x="10.9632" y="7.36841" width="5.74737" height="0.736842" rx="0.368421" transform="rotate(90 10.9632 7.36841)" fill="white"/>
</svg>
