<svg width="100" height="100" viewBox="0 0 100 100" fill="none" xmlns="http://www.w3.org/2000/svg">
<circle cx="50" cy="50" r="50" fill="white"/>
<path d="M49.637 18C37.4051 18 34.873 24.3164 34.873 27.9744V34.873H48.9339V36.2791H27.9744C23.3332 36.2791 18 39.9371 18 50.34C18 60.7428 23.3332 64.4009 27.9744 64.4009H36.2791V55.9643C36.2791 52.872 38.8112 50.34 41.9035 50.34H58.7765C61.1658 50.34 62.9948 48.511 62.9948 46.1217V27.9744C62.9948 23.0531 58.3536 18 49.637 18ZM43.3096 25.0304C44.8585 25.0304 46.1217 26.2937 46.1217 27.8426C46.1217 29.3915 44.8585 30.6548 43.3096 30.6548C41.7607 30.6548 40.4974 29.3915 40.4974 27.8426C40.4974 26.2937 41.7607 25.0304 43.3096 25.0304ZM64.4009 36.2791V46.1217C64.4009 49.214 61.8688 51.7461 58.7765 51.7461H41.9035C39.5142 51.7461 37.6852 53.5751 37.6852 55.9643V72.7056C37.6852 77.6269 42.3264 82.68 51.043 82.68C63.2749 82.68 65.807 76.3636 65.807 72.7056V65.807H51.7461V64.4009H72.7056C77.3467 64.4009 82.68 60.7428 82.68 50.34C82.68 39.9371 77.3467 36.2791 72.7056 36.2791H64.4009ZM57.3704 70.0252C58.9193 70.0252 60.1826 71.2885 60.1826 72.8374C60.1826 74.3863 58.9193 75.6496 57.3704 75.6496C55.8215 75.6496 54.5583 74.3863 54.5583 72.8374C54.5583 71.2885 55.8215 70.0252 57.3704 70.0252Z" fill="black"/>
</svg>
